<svg xmlns="http://www.w3.org/2000/svg" width="24" height="24" viewBox="-1 -1 2 2">
<path d="M 1 0 A 1 1 0 0 1 1 0 L 0 0" fill="orange"> </path>
<path d="M 1 0 A 1 1 0 0 1 1 0 L 0 0" fill="yellow"> </path>
<path d="M 1 0 A 1 1 0 1 1 1 -2.4492935982947064e-16 L 0 0" fill="red"> </path>
<path d="M 1 -2.4492935982947064e-16 A 1 1 0 0 1 1 -2.4492935982947064e-16 L 0 0" fill="green"> </path>
<path d="M 1 -2.4492935982947064e-16 A 1 1 0 0 1 1 -2.4492935982947064e-16 L 0 0" fill="fuchsia"> </path>
<path d="M 1 -2.4492935982947064e-16 A 1 1 0 0 1 1 -2.4492935982947064e-16 L 0 0" fill="blue"> </path>
</svg>
