<svg xmlns="http://www.w3.org/2000/svg" width="24" height="24" viewBox="-1 -1 2 2">
<path d="M 1 0 A 1 1 0 0 1 0.30901699437494745 0.9510565162951535 L 0 0" fill="red"> </path>
<path d="M 0.30901699437494745 0.9510565162951535 A 1 1 0 0 1 -0.8090169943749473 0.5877852522924732 L 0 0" fill="yellow"> </path>
<path d="M -0.8090169943749473 0.5877852522924732 A 1 1 0 0 1 -0.8090169943749472 -0.5877852522924734 L 0 0" fill="green"> </path>
<path d="M -0.8090169943749472 -0.5877852522924734 A 1 1 0 0 1 0.30901699437494723 -0.9510565162951536 L 0 0" fill="blue"> </path>
<path d="M 0.30901699437494723 -0.9510565162951536 A 1 1 0 0 1 1 -2.4492935982947064e-16 L 0 0" fill="orange"> </path>
<path d="M 1 -2.4492935982947064e-16 A 1 1 0 0 1 1 -2.4492935982947064e-16 L 0 0" fill="fuchsia"> </path>
</svg>
